<?xml version="1.0" standalone="yes"?>
<svg xmlns="http://www.w3.org/2000/svg" width="512" height="512">
<path style="fill:#0b0d0e; stroke:none;" d="M0 0L0 512L512 512L512 0L0 0z"/>
<path style="fill:#495852; stroke:none;" d="M131 146C109.24 136.638 82.5184 147.935 75.5702 171C71.1864 185.552 74 203.906 74 219C63.2496 219 52.6073 218.156 43 223.93C21.3372 236.948 21.9038 269.157 42 283.2C51.3484 289.733 63.1774 289 74 289C74 301.433 71.822 316.142 76.0903 328C84.1831 350.483 110.952 361.035 132 350C136.674 384.684 181.29 398.247 203.319 369.996C219.164 349.676 212 312.257 212 288L279 288C279 312.103 271.667 349.803 287.043 369.996C308.63 398.347 354.364 384.397 359 350C380.191 359.382 406.188 350.768 414.3 328C418.753 315.501 417 301.043 417 288C428.361 288 439.296 288.795 448.985 281.699C467.824 267.904 468.566 237.155 448 224.468C438.661 218.707 427.498 220 417 220C417 205.295 419.814 187.259 416.076 173C409.535 148.05 383.059 137.405 360 146C357.132 109.967 309.64 92.339 286.761 123.001C278.076 134.64 279 147.25 279 161L279 219L212 220C212 200.667 211.908 181.332 212.001 162C212.067 148.27 213.361 135.941 204.829 124C182.377 92.576 133.936 109.105 131 146z"/>
<path style="fill:#0b0d0e; stroke:none;" d="M176 209C179.925 199.647 175.656 186.992 177.326 177C179.507 163.945 195.46 153.309 185.347 139.015C178.266 129.008 162.335 129.703 156.92 141.004C151.966 151.341 153.255 174.683 155.148 185.945C155.944 190.678 161.573 191.472 164.996 193.939C170.19 197.683 174.183 202.868 176 209M303 257L324 257C324 231.292 319.169 199.978 325.515 175C328.808 162.036 344.811 149.948 330.786 136.329C321.557 127.368 304.413 132.896 303.105 146C299.489 182.214 303 220.587 303 257z"/>
<path style="fill:#bbeba1; stroke:none;" d="M212 154L212 219L235 219C235 197.62 241.778 158.48 212 154M187 159C173.534 173.112 177 191.903 177 210L176 210C174.227 198.642 165.268 192.37 155 189C155 240.756 150.843 294.439 155.093 346C155.812 354.715 173.018 369.967 176 356L177 356L177 361C193.438 353.157 188 329.246 188 314L188 205C188 192.009 192.007 170.932 187 159z"/>
<path style="fill:#89aa7e; stroke:none;" d="M188 159L188 348L189 348L189 215L189 177L188 159z"/>
<path style="fill:#bbeba1; stroke:none;" d="M335 159C323.225 171.34 324 184.972 324 201L324 257L303 257L303 304L324 304L324 361C341.215 353.427 336 330.524 336 315L336 206C336 192.747 340.107 171.17 335 159z"/>
<path style="fill:#ecffec; stroke:none;" d="M329 165L330 166L329 165z"/>
<path style="fill:#89aa7e; stroke:none;" d="M374 166L374 167L377 167L374 166z"/>
<path style="fill:#0b0d0e; stroke:none;" d="M98 257L119 257C119 242.04 116.505 224.515 120.49 210C123.822 197.863 135.159 192.182 130.03 178C124.688 163.229 103.018 163.852 98.6381 179C96.382 186.803 98 196.918 98 205L98 257z"/>
<path style="fill:#89aa7e; stroke:none;" d="M370 167L371 168L370 167z"/>
<path style="fill:#bbeba1; stroke:none;" d="M393 195L384 207C381.135 197.306 387.843 174.801 378.351 168.028C375.12 165.723 369.863 167.635 367.015 169.653C358.519 175.672 360 185.861 360 195L360 276C360 289.241 358.212 303.914 360.213 317C362.39 331.235 381.863 335.751 390.146 323.957C396.382 315.077 393 297.407 393 287L393 250L393 195z"/>
<path style="fill:#0b0d0e; stroke:none;" d="M379 167L383 207L384 207C386.098 202.2 390.611 198.568 392.411 193.83C396.74 182.438 390.13 170.214 379 167z"/>
<path style="fill:#89aa7e; stroke:none;" d="M368 168L369 169L368 168M365 170L366 171L365 170M364 171L365 172L364 171M363 172L364 173L363 172M361 175L362 176L361 175M360 178L361 179L360 178z"/>
<path style="fill:#ecffec; stroke:none;" d="M382 179L383 180L382 179z"/>
<path style="fill:#bbeba1; stroke:none;" d="M417 189L417 219L440 221C439.958 205.755 432.62 192.712 417 189z"/>
<path style="fill:#ecffec; stroke:none;" d="M163 192L164 193L163 192z"/>
<path style="fill:#bbeba1; stroke:none;" d="M119 257L98 257L98 304L119 304L119 330C134.147 325.498 131 308.47 131 296L131 195C112.417 204.061 119 240.201 119 257z"/>
<path style="fill:#89aa7e; stroke:none;" d="M393 195L393 316L394 316L394 232C394 221.366 397.108 204.789 393 195z"/>
<path style="fill:#ecffec; stroke:none;" d="M390 196L391 197L390 196M389 197L390 198L389 197M125 199L126 200L125 199M434 200L435 201L434 200M173 202L174 203L173 202M175 206L176 207L175 206M176 209L177 210L176 209M119 214L120 215L119 214z"/>
<path style="fill:#89aa7e; stroke:none;" d="M212 219L212 220L234 220L212 219M417 219L417 220L433 220L417 219M437 220L438 221L437 220z"/>
<path style="fill:#0b0d0e; stroke:none;" d="M74 265L74 243C68.9522 243 62.764 242.055 58.0039 244.009C50.7001 247.008 48.2459 257.308 55.1088 262.272C60.2893 266.02 67.9879 265 74 265z"/>
<path style="fill:#bbeba1; stroke:none;" d="M212 243L212 265L279 265L279 257L235 257L235 243L212 243z"/>
<path style="fill:#0b0d0e; stroke:none;" d="M235 243L235 257L279 257L279 243L235 243z"/>
<path style="fill:#bbeba1; stroke:none;" d="M417 243L417 265C422.355 265 429.223 266.102 433.981 263.142C440.473 259.103 441.048 248.239 433.956 244.457C429.126 241.881 422.294 243 417 243z"/>
<path style="fill:#89aa7e; stroke:none;" d="M432 243L433 244L432 243M434 244L435 245L434 244M438 248L439 249L438 248M439 252L439 256L440 256L439 252z"/>
<path style="fill:#bbeba1; stroke:none;" d="M463 257C460.849 281.639 438.005 289 417 289C417 316.557 415.515 352.049 379.09 354.066C372.008 354.458 365.802 352.559 359 351C356.394 368.648 341.968 381.453 325 385C330.723 404.865 360.099 417.939 375.481 399.907C384.998 388.75 383 372.606 383 359L384 359C390.456 380.735 422.949 382.949 434.892 364.996C445.225 349.464 440 321.868 440 304C452.075 304 467.957 306.911 477.957 298.61C496.257 283.417 481.868 260.661 463 257z"/>
<path style="fill:#89aa7e; stroke:none;" d="M97 258L97 303L98 303C98 290.258 101.91 269.701 97 258M302 258L302 304L303 304C303 290.996 307.01 269.939 302 258M437 260L438 261L437 260M462.333 260.667L462.667 261.333L462.333 260.667z"/>
<path style="fill:#ecffec; stroke:none;" d="M474 260L475 261L474 260z"/>
<path style="fill:#89aa7e; stroke:none;" d="M436 261L437 262L436 261M435 262L436 263L435 262M434 263L435 264L434 263M431 264L432 265L431 264M461 264L462 265L461 264M460 267L461 268L460 267M459 269L460 270L459 269M458 271L459 272L458 271M457 272L458 273L457 272M456 274L457 275L456 274M455 275L456 276L455 275M454 276L455 277L454 276M451 279L452 280L451 279M450 280L451 281L450 280M449 281L450 282L449 281M446 283L447 284L446 283M444 284L445 285L444 284M442 285L443 286L442 285z"/>
<path style="fill:#ecffec; stroke:none;" d="M485 285L486 286L485 285z"/>
<path style="fill:#89aa7e; stroke:none;" d="M439.667 286.333L440.333 286.667L439.667 286.333M436 287L437 288L436 287M212 288L212 289L279 289L258 288L212 288M417 288L417 289L432 289L417 288z"/>
<path style="fill:#bbeba1; stroke:none;" d="M212 289C212 323.536 222.244 375.637 177 385C184.634 407.385 218.922 419.371 231.622 394C236.339 384.576 235 373.192 235 363L235 304L279 304L279 289L212 289z"/>
<path style="fill:#0b0d0e; stroke:none;" d="M98 304C98 313.613 97.2551 323.255 107.001 328.583C109.766 330.094 115.45 332.35 117.972 329.257C121.696 324.691 119 309.779 119 304L98 304M303 304C303 324.676 294.693 360.997 324 361L324 304L303 304z"/>
<path style="fill:#89aa7e; stroke:none;" d="M416 318L416 321L417 321L416 318M130 319L131 320L130 319M360 319L361 320L360 319M392 319L393 320L392 319M129 321L130 322L129 321M361 321L362 322L361 321M128 323L129 324L128 323M362 323L363 324L362 323M390 323L391 324L390 323M415 324L416 325L415 324M366 327L367 328L366 327M414 327L415 328L414 327M123 328L124 329L123 328M367 328L368 329L367 328M385 328L386 329L385 328M121 329L122 330L121 329M369 329L370 330L369 329M383 329L384 330L383 329M372 330L373 331L372 330M380.667 330.333L381.333 330.667L380.667 330.333M413 330L414 331L413 330M412 332L413 333L412 332M410 335L411 336L410 335M409 337L410 338L409 337M408 338L409 339L408 338M401 345L402 346L401 345M400 346L401 347L400 346M397 348L398 349L397 348M155 349L156 350L155 349M335 349L336 350L335 349M395 349L396 350L395 349M131 350L132 351L131 350M187 350L188 351L187 350M211 350L211 353L212 353L211 350M359 350L360 351L359 350M393 350L394 351L393 350M129 351L130 352L129 351z"/>
<path style="fill:#bbeba1; stroke:none;" d="M120 354C122.99 366.888 132.665 375.909 146 377C140.083 368.498 133.577 361.678 132 351L120 354z"/>
<path style="fill:#89aa7e; stroke:none;" d="M361.667 351.333L362.333 351.667L361.667 351.333M391 351L392 352L391 351M126 352L127 353L126 352M156 352L157 353L156 352M334 352L335 353L334 352M364.667 352.333L365.333 352.667L364.667 352.333M388 352L389 353L388 352M121.667 353.333L122.333 353.667L121.667 353.333M132.333 353.667L132.667 354.333L132.333 353.667M358.333 353.667L358.667 354.333L358.333 353.667M368.667 353.333L369.333 353.667L368.667 353.333M383.667 353.333L384.333 353.667L383.667 353.333M185 354L186 355L185 354M376 354L377 355L376 354M158 355L159 356L158 355M210.333 355.667L210.667 356.333L210.333 355.667M332 355L333 356L332 355z"/>
<path style="fill:#ecffec; stroke:none;" d="M120 356L121 357L120 356z"/>
<path style="fill:#89aa7e; stroke:none;" d="M159 356L160 357L159 356z"/>
<path style="fill:#0b0d0e; stroke:none;" d="M176 356L175 361L176 356z"/>
<path style="fill:#89aa7e; stroke:none;" d="M331 356L332 357L331 356M133 357L134 358L133 357M160 357L161 358L160 357M330 357L331 358L330 357M357 357L358 358L357 357M181 358L182 359L181 358M209.333 358.667L209.667 359.333L209.333 358.667M329 358L330 359L329 358M163 359L164 360L163 359M180 359L181 360L180 359M327 359L328 360L327 359M134 360L135 361L134 360M165 360L166 361L165 360M178 360L179 361L178 360M325 360L326 361L325 360M356 360L357 361L356 360M168.667 361.333L169.333 361.667L168.667 361.333M173 361L174 362L173 361M208 361L209 362L208 361M135 362L136 363L135 362M355 362L356 363L355 362M207 363L208 364L207 363M136 364L137 365L136 364M354 364L355 365L354 364M206 365L207 366L206 365M138 367L139 368L138 367M352 367L353 368L352 367M204 368L205 369L204 368z"/>
<path style="fill:#ecffec; stroke:none;" d="M128 369L129 370L128 369z"/>
<path style="fill:#89aa7e; stroke:none;" d="M203 369L204 370L203 369M140 370L141 371L140 370M350 370L351 371L350 370M141 371L142 372L141 371M349 371L350 372L349 371M142 372L143 373L142 372M348 372L349 373L348 372M143 373L144 374L143 373M347 373L348 374L347 373M144 374L145 375L144 374M346 374L347 375L346 374M145 375L146 376L145 375M345 375L346 376L345 375z"/>
<path style="fill:#ecffec; stroke:none;" d="M400 375L401 376L400 375z"/>
<path style="fill:#89aa7e; stroke:none;" d="M146 376L147 377L146 376M196 376L197 377L196 376M344 376L345 377L344 376M195 377L196 378L195 377M341 378L342 379L341 378M192 379L193 380L192 379M190 380L191 381L190 380M338 380L339 381L338 380M188 381L189 382L188 381M336 381L337 382L336 381M186 382L187 383L186 382M333 382L334 383L333 382M183 383L184 384L183 383M330.667 383.333L331.333 383.667L330.667 383.333M178.667 384.333L179.333 384.667L178.667 384.333M326.667 384.333L327.333 384.667L326.667 384.333z"/>
</svg>
